<?xml version="1.0" encoding="UTF-8"?>
<svg id="Capa_1" data-name="Capa 1" xmlns="http://www.w3.org/2000/svg" xmlns:xlink="http://www.w3.org/1999/xlink" viewBox="0 0 500 500">
  <defs>
    <style>
      .cls-1 {
        fill: url(#Degradado_sin_nombre_58-3);
      }

      .cls-2 {
        fill: none;
        stroke: #fff;
        stroke-miterlimit: 10;
        stroke-width: 5px;
      }

      .cls-3 {
        fill: url(#Degradado_sin_nombre_58-2);
      }

      .cls-4 {
        fill: url(#Degradado_sin_nombre_58);
      }

      .cls-5 {
        fill: url(#Degradado_sin_nombre_58-4);
      }

      .cls-6 {
        fill: #ffed00;
      }
    </style>
    <linearGradient id="Degradado_sin_nombre_58" data-name="Degradado sin nombre 58" x1="383.68" y1="-108.03" x2="638.27" y2="-108.03" gradientTransform="translate(-4.96 597.73) rotate(-45)" gradientUnits="userSpaceOnUse">
      <stop offset="0" stop-color="#2e2f7b"/>
      <stop offset="1" stop-color="#0f7dc1"/>
    </linearGradient>
    <linearGradient id="Degradado_sin_nombre_58-2" data-name="Degradado sin nombre 58" x1="1302.05" y1="-47.45" x2="1556.62" y2="-47.45" gradientTransform="translate(1204.22 1197.15) rotate(-135)" xlink:href="#Degradado_sin_nombre_58"/>
    <linearGradient id="Degradado_sin_nombre_58-3" data-name="Degradado sin nombre 58" x1="1241.39" y1="870.86" x2="1495.98" y2="870.86" gradientTransform="translate(1803.63 -12.04) rotate(135)" xlink:href="#Degradado_sin_nombre_58"/>
    <linearGradient id="Degradado_sin_nombre_58-4" data-name="Degradado sin nombre 58" x1="323.15" y1="810.25" x2="577.72" y2="810.25" gradientTransform="translate(594.45 -611.45) rotate(45)" xlink:href="#Degradado_sin_nombre_58"/>
  </defs>
  <polygon class="cls-4" points="309.96 10 489.94 190.02 309.96 370.05 249.97 310.04 369.95 190.02 189.98 10 309.96 10"/>
  <polygon class="cls-3" points="10 190.02 189.98 10 369.95 190.02 309.96 250.03 189.98 130.02 10 310.04 10 190.02"/>
  <polygon class="cls-1" points="190.04 490 10.06 309.98 190.04 129.95 250.03 189.96 130.05 309.98 310.02 490 190.04 490"/>
  <polygon class="cls-5" points="490 309.98 310.02 490 130.05 309.98 190.04 249.97 310.02 369.98 490 189.96 490 309.98"/>
  <rect class="cls-6" x="207.54" y="207.61" width="84.85" height="84.85" transform="translate(-103.59 250.03) rotate(-45.01)"/>
  <g>
    <polygon class="cls-2" points="309.96 10 489.94 190.02 309.96 370.05 249.97 310.04 369.95 190.02 189.98 10 309.96 10"/>
    <polygon class="cls-2" points="10 190.02 189.98 10 369.95 190.02 309.96 250.03 189.98 130.02 10 310.04 10 190.02"/>
    <polygon class="cls-2" points="190.04 490 10.06 309.98 190.04 129.95 250.03 189.96 130.05 309.98 310.02 490 190.04 490"/>
    <polygon class="cls-2" points="490 309.98 310.02 490 130.05 309.98 190.04 249.97 310.02 369.98 490 189.96 490 309.98"/>
    <rect class="cls-2" x="207.54" y="207.61" width="84.85" height="84.85" transform="translate(-103.59 250.03) rotate(-45.01)"/>
  </g>
</svg>